<?xml version="1.0" standalone="no"?>
<!DOCTYPE svg PUBLIC "-//W3C//DTD SVG 20010904//EN"
 "http://www.w3.org/TR/2001/REC-SVG-20010904/DTD/svg10.dtd">
<svg version="1.0" xmlns="http://www.w3.org/2000/svg"
 width="150.000000pt" height="150.000000pt" viewBox="0 0 150.000000 150.000000"
 preserveAspectRatio="xMidYMid meet">

<g transform="translate(0.000000,150.000000) scale(0.100000,-0.100000)"
fill="#000000" stroke="none">
<path d="M936 1377 c-43 -27 -86 -89 -86 -124 0 -20 5 -23 40 -23 30 0 40 4
40 16 0 8 13 29 29 45 52 51 128 33 157 -38 13 -29 13 -38 -1 -66 -30 -64 -8
-62 -582 -65 l-523 -3 0 -39 0 -40 513 0 c326 0 526 4 550 11 116 32 170 173
104 270 -37 54 -71 73 -140 77 -52 2 -68 -1 -101 -21z"/>
<path d="M110 900 l0 -40 40 0 40 0 0 40 0 40 -40 0 -40 0 0 -40z"/>
<path d="M290 900 l0 -40 225 0 225 0 0 40 0 40 -225 0 -225 0 0 -40z"/>
<path d="M850 900 l0 -40 259 0 c280 0 291 -2 291 -54 0 -31 -19 -46 -57 -46
-32 0 -33 -1 -33 -45 0 -43 1 -45 30 -45 46 0 94 24 119 58 29 41 29 119 0
156 -42 54 -56 56 -344 56 l-265 0 0 -40z"/>
<path d="M10 715 l0 -45 545 0 545 0 16 -25 c15 -23 15 -27 0 -50 -12 -19 -25
-25 -51 -25 -34 0 -35 -1 -35 -40 l0 -40 40 0 c60 0 99 24 121 76 36 79 -3
160 -87 183 -26 7 -215 11 -566 11 l-528 0 0 -45z"/>
<path d="M10 530 l0 -40 45 0 45 0 0 40 0 40 -45 0 -45 0 0 -40z"/>
<path d="M200 530 l0 -39 295 -3 295 -3 27 -28 c41 -40 39 -99 -5 -138 -20
-18 -43 -29 -61 -29 -33 0 -86 40 -96 70 -5 16 -15 20 -47 20 -40 0 -40 0 -34
-32 8 -42 51 -95 96 -120 52 -28 136 -21 185 16 43 33 75 95 75 146 0 41 -29
108 -56 132 -50 44 -79 48 -384 48 l-290 0 0 -40z"/>
</g>
</svg>
