<?xml version="1.0" standalone="no"?>
<!DOCTYPE svg PUBLIC "-//W3C//DTD SVG 20010904//EN"
 "http://www.w3.org/TR/2001/REC-SVG-20010904/DTD/svg10.dtd">
<svg version="1.0" xmlns="http://www.w3.org/2000/svg"
 width="200.000000pt" height="200.000000pt" viewBox="0 0 200.000000 200.000000"
 preserveAspectRatio="xMidYMid meet">

<g transform="translate(0.000000,200.000000) scale(0.100000,-0.100000)"
fill="#000000" stroke="none">
<path d="M1162 1613 c-41 -20 -62 -59 -62 -114 0 -33 6 -47 34 -75 29 -29 41
-34 81 -34 40 0 52 5 81 34 19 19 34 45 35 58 4 73 -17 113 -68 134 -42 18
-60 17 -101 -3z m88 -78 c15 -19 6 -61 -16 -69 -27 -10 -53 3 -60 30 -8 30 11
54 41 54 12 0 28 -7 35 -15z"/>
<path d="M1464 1426 c-29 -29 -34 -41 -34 -81 0 -60 28 -101 79 -116 82 -24
151 28 151 116 0 40 -5 52 -34 81 -29 29 -41 34 -81 34 -40 0 -52 -5 -81 -34z
m110 -52 c30 -30 13 -74 -29 -74 -42 0 -59 44 -29 74 8 9 22 16 29 16 7 0 21
-7 29 -16z"/>
<path d="M862 1368 c-23 -23 -13 -47 26 -65 28 -14 37 -24 37 -43 0 -45 -28
-50 -301 -50 -206 0 -254 -3 -263 -14 -9 -11 -10 -20 -1 -35 10 -20 18 -21
284 -21 268 0 274 0 307 23 45 30 63 83 46 134 -20 60 -102 104 -135 71z"/>
<path d="M1193 1289 c-30 -30 -7 -69 40 -69 21 0 41 -11 68 -39 34 -34 39 -44
39 -86 0 -42 -5 -52 -39 -86 l-39 -39 -440 0 c-387 0 -442 -2 -456 -16 -20
-19 -20 -29 0 -48 14 -14 68 -16 442 -16 267 0 441 4 465 11 43 12 101 59 122
99 64 123 -14 274 -151 295 -26 4 -43 2 -51 -6z"/>
<path d="M1504 874 c-21 -8 -40 -14 -41 -14 -11 -1 -33 -68 -33 -101 0 -33 6
-47 34 -75 29 -29 41 -34 81 -34 40 0 52 5 81 34 29 29 34 41 34 80 0 84 -76
138 -156 110z m76 -84 c21 -40 -9 -78 -51 -65 -24 8 -35 50 -19 70 18 22 57
19 70 -5z"/>
<path d="M360 699 c-9 -15 -8 -24 1 -35 9 -11 52 -14 229 -14 195 0 220 -2
240 -18 31 -25 19 -58 -26 -77 -30 -12 -35 -19 -32 -42 2 -22 9 -29 30 -31 85
-10 146 95 103 178 -29 56 -51 60 -304 60 -222 0 -231 -1 -241 -21z"/>
<path d="M1080 622 c-50 -25 -76 -81 -61 -132 24 -81 108 -113 179 -70 75 46
69 166 -12 204 -43 20 -63 20 -106 -2z m90 -81 c15 -29 13 -39 -14 -56 -31
-21 -66 -5 -66 28 0 46 59 66 80 28z"/>
</g>
</svg>
