<?xml version="1.0" standalone="no"?>
<!DOCTYPE svg PUBLIC "-//W3C//DTD SVG 20010904//EN"
 "http://www.w3.org/TR/2001/REC-SVG-20010904/DTD/svg10.dtd">
<svg version="1.0" xmlns="http://www.w3.org/2000/svg"
 width="450.000000pt" height="450.000000pt" viewBox="0 0 450.000000 450.000000"
 preserveAspectRatio="xMidYMid meet">
<metadata>
Created by potrace 1.14, written by Peter Selinger 2001-2017
</metadata>
<g transform="translate(0.000000,450.000000) scale(0.100000,-0.100000)"
fill="#000000" stroke="none">
<path d="M807 4384 c-1 -1 -22 -5 -46 -8 -39 -5 -76 -15 -131 -34 -8 -3 -17
-6 -20 -7 -183 -63 -351 -213 -431 -385 -39 -82 -58 -131 -63 -165 -3 -16 -9
-43 -13 -60 -19 -72 -2 -317 25 -360 4 -5 7 -15 8 -22 9 -56 151 -283 204
-326 73 -58 96 -75 157 -109 36 -21 71 -38 80 -38 9 0 12 -6 9 -17 -15 -52
-25 -113 -21 -136 3 -15 7 -38 9 -51 16 -94 116 -201 204 -221 18 -4 205 -7
415 -6 210 0 390 -2 400 -5 9 -3 17 -11 17 -19 0 -7 7 -16 16 -19 8 -3 12 -10
9 -16 -3 -5 -1 -10 4 -10 6 0 11 -5 11 -11 0 -15 26 -39 34 -32 3 4 6 -1 6
-10 0 -9 4 -17 10 -17 5 0 23 -13 40 -30 16 -16 30 -27 30 -23 0 3 6 0 14 -7
8 -6 13 -17 11 -23 -21 -58 -4 -122 39 -151 13 -8 45 -16 72 -17 49 -3 108 19
187 69 17 11 30 13 35 7 4 -5 30 -11 57 -11 28 -1 91 -7 140 -13 119 -16 452
-17 499 -1 19 6 40 9 45 6 5 -4 11 -2 13 3 1 5 16 11 31 13 18 2 51 24 91 63
35 33 62 63 60 66 -2 3 7 16 20 30 12 13 21 29 19 36 -2 6 2 17 10 24 15 16
31 50 29 62 -1 4 3 7 9 7 5 0 8 4 4 9 -3 5 -1 12 5 16 5 3 10 15 10 26 0 10 4
19 9 19 5 0 7 9 4 20 -3 12 0 20 6 20 7 0 9 5 6 10 -3 6 -3 16 2 23 8 13 10
22 16 78 6 54 -23 84 -76 81 -144 -8 -385 -7 -459 2 l-87 11 29 44 c17 24 30
52 30 62 0 10 5 21 10 24 6 3 10 33 10 67 0 46 -7 75 -29 122 -50 103 -111
155 -216 182 -43 10 -8 12 250 9 165 -1 377 -4 470 -6 167 -4 227 3 253 28 8
7 17 11 21 8 5 -2 33 20 64 50 31 30 54 55 50 55 -3 0 6 15 19 33 13 17 30 47
37 65 8 17 16 32 20 32 4 0 8 15 9 33 2 17 7 34 12 35 6 2 8 7 6 11 -3 4 2 36
10 72 22 94 22 107 -2 188 -13 41 -21 78 -18 83 3 4 1 8 -3 8 -11 0 -44 56
-37 63 3 3 -5 8 -18 12 -13 4 -31 16 -41 26 -10 11 -26 19 -36 19 -10 0 -21 3
-25 7 -12 12 -38 14 -226 12 -267 -1 -310 -3 -310 -12 0 -4 -17 -6 -37 -5 -21
1 -69 -5 -108 -14 -38 -9 -77 -16 -85 -16 -28 0 -105 -13 -136 -23 -17 -5 -44
-11 -60 -14 -38 -5 -60 -10 -114 -26 -64 -18 -72 -20 -103 -24 -15 -3 -41 -12
-57 -20 -17 -9 -30 -12 -30 -8 0 4 -5 2 -12 -5 -7 -7 -25 -12 -42 -12 -16 0
-37 -6 -45 -14 -9 -8 -25 -16 -36 -18 -11 -1 -23 -7 -27 -13 -5 -7 -12 -7 -21
0 -156 113 -243 147 -390 150 l-97 3 -32 43 c-42 60 -143 162 -199 203 -65 47
-191 103 -271 120 -13 3 -36 8 -53 12 -26 5 -164 12 -168 8z m148 -238 c129
-33 239 -93 299 -164 6 -8 21 -25 34 -38 12 -14 22 -29 22 -33 0 -5 7 -14 15
-21 8 -7 12 -16 9 -21 -3 -5 -1 -9 3 -9 5 0 20 -30 33 -66 14 -37 31 -69 38
-71 7 -3 36 5 65 17 57 24 201 38 212 20 4 -6 10 -8 15 -5 5 3 20 0 32 -7 21
-11 26 -13 45 -17 10 -2 -29 -41 -42 -41 -16 0 -186 -171 -180 -181 3 -4 -2
-15 -11 -23 -8 -9 -13 -16 -9 -16 3 0 1 -9 -5 -21 -6 -11 -14 -48 -16 -82 -3
-34 -9 -75 -15 -91 -5 -16 -9 -76 -9 -133 l0 -103 -346 1 c-374 1 -405 4 -506
56 -87 45 -110 63 -176 137 -53 60 -121 166 -106 166 3 0 0 9 -6 21 -15 28
-30 113 -31 174 -1 44 4 74 24 162 3 11 13 35 21 52 9 17 14 31 11 31 -14 0
65 108 113 154 60 57 72 66 82 66 6 0 10 3 10 8 0 4 12 12 28 19 98 43 126 53
136 50 6 -2 24 2 40 8 30 13 121 13 171 1z m1352 -933 c-27 -13 -57 -64 -57
-93 0 -57 49 -110 101 -110 60 0 104 -64 78 -112 -22 -41 -40 -47 -142 -48
-84 0 -103 -3 -128 -21 -16 -11 -33 -17 -39 -14 -11 7 -47 16 -67 17 -21 2
-15 13 18 39 17 13 34 26 38 29 24 19 62 95 75 148 11 49 15 97 6 97 0 0 -3
19 -5 42 l-3 41 75 -1 c68 -1 72 -2 50 -14z m-347 -52 c19 -36 12 -78 -16
-100 -23 -18 -41 -21 -120 -21 -81 0 -94 2 -94 16 0 31 83 94 113 86 4 -1 7 2
7 7 0 11 46 29 77 30 12 1 27 -8 33 -18z m-454 -367 c1 -10 3 -46 5 -78 l4
-60 -325 0 c-179 -1 -336 3 -350 8 -44 15 -64 82 -35 120 20 27 82 31 410 30
278 -1 290 -1 291 -20z"/>
<path d="M3570 2609 c-19 -3 -48 -11 -63 -18 -35 -14 -136 -118 -144 -148 -3
-13 -9 -23 -14 -23 -5 0 -9 -9 -9 -20 0 -11 -5 -20 -11 -20 -5 0 -8 -4 -5 -9
3 -5 -3 -28 -13 -52 -11 -24 -17 -47 -15 -51 3 -4 2 -8 -3 -8 -4 0 -9 -17 -10
-37 0 -21 -3 -69 -5 -108 -2 -38 2 -89 9 -112 7 -24 10 -43 8 -43 -2 0 6 -10
18 -22 15 -16 35 -23 62 -24 46 -1 115 -30 115 -49 0 -7 5 -15 11 -17 15 -5
15 -61 0 -66 -6 -2 -9 -7 -6 -12 2 -4 -7 -20 -20 -34 -14 -15 -25 -31 -25 -36
0 -5 -9 -11 -19 -15 -10 -3 -21 -15 -24 -26 -3 -12 -10 -18 -15 -15 -5 3 -14
-6 -21 -21 -6 -14 -14 -23 -18 -20 -3 4 -20 -5 -36 -19 -17 -14 -41 -30 -54
-35 -13 -5 -23 -13 -23 -19 0 -5 -9 -10 -20 -10 -11 0 -20 -4 -20 -10 0 -5 -7
-10 -15 -10 -8 0 -15 -5 -15 -11 0 -5 -4 -8 -9 -4 -5 3 -13 0 -16 -6 -4 -5
-13 -8 -21 -5 -8 3 -14 1 -14 -4 0 -6 -6 -10 -14 -10 -8 0 -16 -4 -18 -9 -1
-6 -14 -12 -28 -14 -14 -2 -45 -13 -70 -25 -25 -12 -53 -22 -63 -22 -10 0 -31
-7 -47 -15 -17 -9 -30 -13 -30 -9 0 4 -6 2 -12 -4 -7 -5 -40 -13 -73 -17 -33
-4 -64 -10 -70 -15 -5 -4 -17 -8 -25 -9 -8 0 -37 -3 -65 -5 -27 -2 -57 -7 -65
-10 -46 -16 -467 -30 -505 -16 -11 4 -47 11 -80 14 -93 11 -126 17 -154 28
-14 5 -39 12 -56 14 -42 6 -105 26 -105 33 0 4 -12 8 -27 9 -15 1 -30 7 -34
13 -4 7 -11 9 -16 6 -6 -4 -19 0 -29 8 -10 8 -27 15 -36 15 -10 0 -18 5 -18
11 0 5 -4 8 -9 4 -5 -3 -17 3 -27 12 -10 10 -19 16 -21 14 -7 -6 -63 21 -63
31 0 5 -4 7 -9 3 -5 -3 -16 1 -24 9 -8 8 -17 13 -19 10 -3 -2 -11 2 -18 11 -7
8 -18 15 -24 15 -6 0 -24 11 -40 25 -16 14 -34 25 -40 25 -7 0 -19 8 -27 18
-9 9 -31 28 -49 42 -19 14 -43 34 -55 45 -11 11 -24 20 -27 20 -12 0 -137 133
-131 139 4 3 -1 6 -10 6 -10 0 -17 3 -17 8 0 4 -14 23 -31 42 -17 19 -39 46
-48 60 -8 14 -24 31 -33 38 -10 7 -16 18 -13 23 4 5 1 9 -5 9 -6 0 -9 4 -6 9
3 5 0 11 -8 14 -8 3 -22 23 -32 44 -10 21 -21 40 -24 43 -4 3 -10 17 -13 32
-4 15 -14 34 -23 43 -9 8 -17 21 -18 28 -1 6 -9 26 -18 43 -10 17 -18 42 -20
56 -5 36 -36 78 -57 78 -17 0 -38 -40 -32 -64 1 -5 -8 -38 -20 -75 -13 -36
-22 -76 -21 -88 1 -13 -2 -23 -6 -23 -4 0 -8 -15 -9 -32 -1 -18 -7 -62 -12
-98 -13 -79 -19 -289 -9 -311 4 -9 9 -31 11 -50 2 -19 8 -42 12 -51 4 -10 8
-36 8 -58 1 -22 6 -40 10 -40 4 0 7 -6 5 -12 -1 -7 3 -23 10 -35 7 -13 10 -23
6 -23 -3 0 -1 -7 6 -15 7 -8 10 -15 6 -15 -3 0 6 -26 20 -57 14 -32 26 -62 27
-68 1 -5 7 -14 14 -20 6 -5 13 -19 15 -30 2 -11 11 -29 20 -39 10 -11 18 -24
18 -28 0 -5 8 -18 18 -29 11 -10 25 -32 33 -47 8 -15 20 -31 27 -35 7 -5 10
-12 8 -16 -3 -4 6 -14 19 -21 13 -7 22 -17 19 -22 -3 -4 0 -8 5 -8 6 0 11 -5
11 -10 0 -6 22 -32 50 -58 69 -65 78 -72 90 -72 6 0 9 -3 7 -7 -3 -5 1 -14 9
-21 8 -7 14 -10 14 -7 0 3 12 -6 27 -20 15 -14 32 -25 38 -25 6 0 17 -9 25
-19 7 -11 17 -18 21 -16 3 3 18 -6 32 -19 14 -13 28 -21 31 -18 3 3 6 0 6 -7
0 -7 4 -10 8 -7 5 3 16 -4 25 -15 9 -10 24 -19 32 -19 8 0 15 -3 15 -7 0 -10
49 -33 70 -33 9 0 30 -11 46 -25 15 -13 30 -22 33 -20 2 3 18 -4 35 -14 17
-11 48 -22 69 -26 20 -4 37 -11 37 -17 0 -5 4 -7 9 -3 5 3 15 0 23 -7 7 -7 24
-14 38 -15 14 -1 39 -7 55 -14 17 -7 36 -11 43 -10 6 1 12 -2 12 -7 0 -5 13
-7 30 -4 19 3 30 0 30 -8 0 -7 7 -10 15 -6 8 3 29 -1 47 -8 40 -17 89 -25 223
-39 28 -3 62 -8 75 -11 91 -22 516 -22 600 0 14 4 37 7 53 8 15 0 27 4 27 9 0
4 3 6 8 5 13 -3 96 14 115 24 10 5 30 11 45 13 53 9 86 18 111 31 13 7 28 11
33 8 4 -3 8 -1 8 5 0 6 16 13 35 17 19 3 35 10 35 15 0 5 3 8 8 7 4 -1 17 3
30 10 12 7 22 10 22 7 0 -3 10 3 22 15 12 11 26 20 31 20 5 0 20 9 34 20 14
11 29 17 34 14 5 -3 9 0 9 5 0 6 7 11 15 11 8 0 15 3 15 8 0 4 18 16 40 26 21
10 49 29 61 42 13 13 28 24 36 24 7 0 13 5 13 10 0 6 5 10 11 10 6 0 26 17 45
38 18 20 34 33 34 29 0 -10 148 141 170 173 8 13 20 28 25 34 6 6 23 30 39 54
16 24 36 47 45 52 9 5 12 10 8 10 -4 0 4 16 19 35 14 19 22 35 18 35 -5 1 1 9
14 20 13 10 23 21 22 24 0 4 0 7 1 9 0 1 2 10 4 19 2 10 10 25 19 34 9 8 16
24 16 35 0 10 5 19 12 19 6 0 8 3 5 7 -4 3 0 17 8 29 8 12 17 36 20 52 2 16
12 47 21 68 10 21 19 53 21 69 2 17 11 53 20 80 23 70 23 417 0 462 -9 16 -17
41 -19 54 -2 13 -10 35 -18 49 -8 14 -15 27 -16 30 -9 34 -28 70 -40 74 -8 3
-14 10 -14 16 0 15 -92 104 -130 127 -17 9 -30 21 -30 26 0 4 -4 5 -10 2 -5
-3 -10 -1 -10 5 0 6 -5 8 -10 5 -6 -3 -13 1 -16 9 -3 9 -9 14 -13 11 -4 -2
-30 3 -57 11 -91 29 -99 30 -134 23z"/>
</g>
</svg>
